<svg width="400" height="400" viewBox="0 0 400 400" xmlns="http://www.w3.org/2000/svg">
<defs>
    <filter id="shadow" x="-20%" y="-20%" width="140%" height="140%">
        <feDropShadow dx="2" dy="4" stdDeviation="3" flood-opacity="0.3"/>
    </filter>
    <filter id="glow" x="-50%" y="-50%" width="200%" height="200%">
        <feGaussianBlur stdDeviation="8" result="blur"/>
        <feMerge><feMergeNode in="blur"/><feMergeNode in="SourceGraphic"/></feMerge>
    </filter>
    <linearGradient id="rainbow-body" x1="0%" y1="0%" x2="100%" y2="100%">
        <stop offset="0%" stop-color="#FF6B6B"/><stop offset="25%" stop-color="#FFE66D"/>
        <stop offset="50%" stop-color="#4ECDC4"/><stop offset="75%" stop-color="#45B7D1"/>
        <stop offset="100%" stop-color="#DDA0DD"/>
    </linearGradient>
    <radialGradient id="galaxy-body" cx="30%" cy="30%">
        <stop offset="0%" stop-color="#E6E6FA"/><stop offset="50%" stop-color="#9370DB"/>
        <stop offset="100%" stop-color="#1A0033"/>
    </radialGradient>
    <linearGradient id="holo-body" x1="0%" y1="0%" x2="100%" y2="100%">
        <stop offset="0%" stop-color="#FF00FF"/><stop offset="50%" stop-color="#00FFFF"/>
        <stop offset="100%" stop-color="#FFFF00"/>
    </linearGradient>
    <linearGradient id="sky-gradient" x1="0%" y1="0%" x2="0%" y2="100%">
        <stop offset="0%" stop-color="#87CEEB"/><stop offset="100%" stop-color="#E0F4FF"/>
    </linearGradient>
    <linearGradient id="grass-gradient" x1="0%" y1="0%" x2="0%" y2="100%">
        <stop offset="0%" stop-color="#90EE90"/><stop offset="100%" stop-color="#228B22"/>
    </linearGradient>
    <linearGradient id="sunset-gradient" x1="0%" y1="0%" x2="0%" y2="100%">
        <stop offset="0%" stop-color="#FF6B6B"/><stop offset="50%" stop-color="#FFE66D"/>
        <stop offset="100%" stop-color="#4ECDC4"/>
    </linearGradient>
    <linearGradient id="aurora-gradient" x1="0%" y1="0%" x2="100%" y2="100%">
        <stop offset="0%" stop-color="#0D1B2A"/><stop offset="30%" stop-color="#00FF7F"/>
        <stop offset="70%" stop-color="#FF00FF"/><stop offset="100%" stop-color="#0D1B2A"/>
    </linearGradient>
    <radialGradient id="multiverse-gradient" cx="50%" cy="50%">
        <stop offset="0%" stop-color="#FFD700"/><stop offset="40%" stop-color="#FF00FF"/>
        <stop offset="70%" stop-color="#00FFFF"/><stop offset="100%" stop-color="#000"/>
    </radialGradient>
    <linearGradient id="rift-gradient" x1="0%" y1="0%" x2="100%" y2="100%">
        <stop offset="0%" stop-color="#000"/><stop offset="30%" stop-color="#9400D3"/>
        <stop offset="50%" stop-color="#00FFFF"/><stop offset="70%" stop-color="#9400D3"/>
        <stop offset="100%" stop-color="#000"/>
    </linearGradient>
    <linearGradient id="heaven-gradient" x1="0%" y1="0%" x2="0%" y2="100%">
        <stop offset="0%" stop-color="#FFF"/><stop offset="50%" stop-color="#FFD700" stop-opacity="0.3"/>
        <stop offset="100%" stop-color="#F0F8FF"/>
    </linearGradient>
    <clipPath id="head-clip"><ellipse cx="200" cy="200" rx="110" ry="115"/></clipPath>
</defs>
<rect width="400" height="400" fill="#0D1B2A"/>
<circle cx="271" cy="389" r="1" fill="white" opacity="0.4"/>
<circle cx="142" cy="378" r="2" fill="white" opacity="0.5"/>
<circle cx="13" cy="367" r="1" fill="white" opacity="0.6000000000000001"/>
<circle cx="284" cy="356" r="2" fill="white" opacity="0.7000000000000001"/>
<circle cx="155" cy="345" r="1" fill="white" opacity="0.8"/>
<circle cx="26" cy="334" r="2" fill="white" opacity="0.4"/>
<circle cx="297" cy="323" r="1" fill="white" opacity="0.5"/>
<circle cx="168" cy="312" r="2" fill="white" opacity="0.6000000000000001"/>
<circle cx="39" cy="301" r="1" fill="white" opacity="0.7000000000000001"/>
<circle cx="310" cy="290" r="2" fill="white" opacity="0.8"/>
<circle cx="181" cy="279" r="1" fill="white" opacity="0.4"/>
<circle cx="52" cy="268" r="2" fill="white" opacity="0.5"/>
<circle cx="323" cy="257" r="1" fill="white" opacity="0.6000000000000001"/>
<circle cx="194" cy="246" r="2" fill="white" opacity="0.7000000000000001"/>
<circle cx="65" cy="235" r="1" fill="white" opacity="0.8"/>
<circle cx="336" cy="224" r="2" fill="white" opacity="0.4"/>
<circle cx="207" cy="213" r="1" fill="white" opacity="0.5"/>
<circle cx="78" cy="202" r="2" fill="white" opacity="0.6000000000000001"/>
<circle cx="349" cy="191" r="1" fill="white" opacity="0.7000000000000001"/>
<circle cx="220" cy="180" r="2" fill="white" opacity="0.8"/>
<circle cx="91" cy="169" r="1" fill="white" opacity="0.4"/>
<circle cx="362" cy="158" r="2" fill="white" opacity="0.5"/>
<circle cx="233" cy="147" r="1" fill="white" opacity="0.6000000000000001"/>
<circle cx="104" cy="136" r="2" fill="white" opacity="0.7000000000000001"/>
<circle cx="375" cy="125" r="1" fill="white" opacity="0.8"/>
<circle cx="246" cy="114" r="2" fill="white" opacity="0.4"/>
<circle cx="117" cy="103" r="1" fill="white" opacity="0.5"/>
<circle cx="388" cy="92" r="2" fill="white" opacity="0.6000000000000001"/>
<circle cx="259" cy="81" r="1" fill="white" opacity="0.7000000000000001"/>
<circle cx="130" cy="70" r="2" fill="white" opacity="0.8"/>
<circle cx="1" cy="59" r="1" fill="white" opacity="0.4"/>
<circle cx="272" cy="48" r="2" fill="white" opacity="0.5"/>
<circle cx="143" cy="37" r="1" fill="white" opacity="0.6000000000000001"/>
<circle cx="14" cy="26" r="2" fill="white" opacity="0.7000000000000001"/>
<circle cx="285" cy="15" r="1" fill="white" opacity="0.8"/>
<circle cx="156" cy="4" r="2" fill="white" opacity="0.4"/>
<circle cx="27" cy="393" r="1" fill="white" opacity="0.5"/>
<circle cx="298" cy="382" r="2" fill="white" opacity="0.6000000000000001"/>
<circle cx="169" cy="371" r="1" fill="white" opacity="0.7000000000000001"/>
<circle cx="40" cy="360" r="2" fill="white" opacity="0.8"/>

<ellipse cx="115" cy="140" rx="45" ry="50" fill="#FFD700" filter="url(#shadow)"/>
<ellipse cx="115" cy="140" rx="30" ry="35" fill="#FFB6C1"/>
<ellipse cx="115" cy="145" rx="18" ry="22" fill="#FF9999"/>
<ellipse cx="285" cy="140" rx="45" ry="50" fill="#FFD700" filter="url(#shadow)"/>
<ellipse cx="285" cy="140" rx="30" ry="35" fill="#FFB6C1"/>
<ellipse cx="285" cy="145" rx="18" ry="22" fill="#FF9999"/>
<ellipse cx="200" cy="200" rx="110" ry="115" fill="#FFD700" filter="url(#shadow)"/>
<ellipse cx="180" cy="140" rx="50" ry="30" fill="#FFEC8B" opacity="0.3"/>
<g clip-path="url(#head-clip)"><circle cx="110" cy="110" r="12" fill="#000" opacity="0.12"/><circle cx="261" cy="193" r="12" fill="#000" opacity="0.12"/><circle cx="232" cy="276" r="12" fill="#000" opacity="0.12"/><circle cx="203" cy="179" r="12" fill="#000" opacity="0.12"/><circle cx="174" cy="262" r="12" fill="#000" opacity="0.12"/><circle cx="145" cy="165" r="12" fill="#000" opacity="0.12"/><circle cx="116" cy="248" r="12" fill="#000" opacity="0.12"/><circle cx="267" cy="151" r="12" fill="#000" opacity="0.12"/><circle cx="238" cy="234" r="12" fill="#000" opacity="0.12"/><circle cx="209" cy="137" r="12" fill="#000" opacity="0.12"/></g>
<ellipse cx="200" cy="235" rx="70" ry="60" fill="#FFDAB9"/>
<ellipse cx="200" cy="250" rx="55" ry="40" fill="#DEB887" opacity="0.3"/>
<ellipse cx="162" cy="185" rx="22" ry="24" fill="#000" opacity="0.08"/>
<ellipse cx="238" cy="185" rx="22" ry="24" fill="#000" opacity="0.08"/>
<ellipse cx="162" cy="185" rx="18" ry="20" fill="white"/>
<circle cx="162" cy="185" r="12" fill="#3D2314"/>
<circle cx="162" cy="185" r="6" fill="#000"/>
<circle cx="166" cy="181" r="4" fill="white"/>
<ellipse cx="238" cy="185" rx="18" ry="20" fill="white"/>
<circle cx="238" cy="185" r="12" fill="#3D2314"/>
<circle cx="238" cy="185" r="6" fill="#000"/>
<circle cx="242" cy="181" r="4" fill="white"/>
<g>
            <ellipse cx="200" cy="230" rx="25" ry="18" fill="#8B4513"/>
            <ellipse cx="200" cy="230" rx="22" ry="15" fill="#A0522D"/>
            <ellipse cx="192" cy="230" rx="5" ry="7" fill="#5D2E0C"/>
            <ellipse cx="208" cy="230" rx="5" ry="7" fill="#5D2E0C"/>
        </g>
<line x1="182" y1="260" x2="218" y2="260" stroke="#5D2E0C" stroke-width="2"/>
<path d="M110 120 Q200 90 290 120" stroke="#E74C3C" stroke-width="12" fill="none"/><polygon points="105,125 90,160 115,150" fill="#E74C3C"/>
<circle cx="100" cy="100" r="3" fill="#FFD700" opacity="0.6"/><circle cx="289" cy="101" r="3" fill="#FFD700" opacity="0.6"/><circle cx="278" cy="102" r="3" fill="#FFD700" opacity="0.6"/><circle cx="267" cy="103" r="3" fill="#FFD700" opacity="0.6"/><circle cx="256" cy="104" r="3" fill="#FFD700" opacity="0.6"/><circle cx="245" cy="105" r="3" fill="#FFD700" opacity="0.6"/><circle cx="234" cy="106" r="3" fill="#FFD700" opacity="0.6"/><circle cx="223" cy="107" r="3" fill="#FFD700" opacity="0.6"/><circle cx="212" cy="108" r="3" fill="#FFD700" opacity="0.6"/><circle cx="201" cy="109" r="3" fill="#FFD700" opacity="0.6"/><circle cx="190" cy="110" r="3" fill="#FFD700" opacity="0.6"/><circle cx="179" cy="111" r="3" fill="#FFD700" opacity="0.6"/>
<g transform="translate(325, 15)">
            <rect width="65" height="22" rx="4" fill="#A0A0A0" opacity="0.9"/>
            <text x="32" y="15" font-size="8" fill="#FFF" text-anchor="middle" font-family="sans-serif" font-weight="bold">COMMON</text>
        </g>
        <g transform="translate(10, 15)">
            <rect width="45" height="22" rx="4" fill="#333" opacity="0.8"/>
            <text x="22" y="15" font-size="9" fill="#FFF" text-anchor="middle" font-family="sans-serif">Gen 1</text>
        </g>
</svg>